<mxfile host="app.diagrams.net" modified="2021-03-19T09:09:06.803Z" agent="5.0 (Macintosh; Intel Mac OS X 10_15_2) AppleWebKit/537.36 (KHTML, like Gecko) Chrome/89.0.4389.90 Safari/537.36" etag="QdMdBW2k6D87YH9mbOb8" version="14.4.9" type="github">
  <diagram id="FKqAZufUGknM8MceFIrd" name="Page-1">
    <mxGraphModel dx="1001" dy="709" grid="1" gridSize="10" guides="1" tooltips="1" connect="1" arrows="1" fold="1" page="1" pageScale="1" pageWidth="1100" pageHeight="1700" background="#EEEEEE" math="0" shadow="0">
      <root>
        <mxCell id="0" />
        <mxCell id="1" parent="0" />
        <mxCell id="u7AtyUlaAKWGp2m2ATKs-4" value="" style="edgeStyle=orthogonalEdgeStyle;rounded=0;orthogonalLoop=1;jettySize=auto;html=1;strokeColor=#182E3E;labelBackgroundColor=#EEEEEE;fontColor=#1A1A1A;" edge="1" parent="1" source="u7AtyUlaAKWGp2m2ATKs-1" target="u7AtyUlaAKWGp2m2ATKs-3">
          <mxGeometry relative="1" as="geometry" />
        </mxCell>
        <mxCell id="u7AtyUlaAKWGp2m2ATKs-1" value="UpstreamSensor" style="shape=step;perimeter=stepPerimeter;whiteSpace=wrap;html=1;fixedSize=1;rounded=1;fillColor=#F5AB50;strokeColor=#909090;fontColor=#1A1A1A;" vertex="1" parent="1">
          <mxGeometry x="30" y="240" width="120" height="80" as="geometry" />
        </mxCell>
        <mxCell id="u7AtyUlaAKWGp2m2ATKs-6" value="" style="edgeStyle=orthogonalEdgeStyle;rounded=0;orthogonalLoop=1;jettySize=auto;html=1;strokeColor=#182E3E;labelBackgroundColor=#EEEEEE;fontColor=#1A1A1A;" edge="1" parent="1" source="u7AtyUlaAKWGp2m2ATKs-3" target="u7AtyUlaAKWGp2m2ATKs-5">
          <mxGeometry relative="1" as="geometry" />
        </mxCell>
        <mxCell id="u7AtyUlaAKWGp2m2ATKs-3" value="AllocateResource" style="shape=step;perimeter=stepPerimeter;whiteSpace=wrap;html=1;fixedSize=1;rounded=1;fillColor=#F5AB50;strokeColor=#909090;fontColor=#1A1A1A;" vertex="1" parent="1">
          <mxGeometry x="230" y="240" width="120" height="80" as="geometry" />
        </mxCell>
        <mxCell id="u7AtyUlaAKWGp2m2ATKs-8" value="" style="edgeStyle=orthogonalEdgeStyle;rounded=0;orthogonalLoop=1;jettySize=auto;html=1;strokeColor=#182E3E;labelBackgroundColor=#EEEEEE;fontColor=#1A1A1A;" edge="1" parent="1" source="u7AtyUlaAKWGp2m2ATKs-5" target="u7AtyUlaAKWGp2m2ATKs-7">
          <mxGeometry relative="1" as="geometry" />
        </mxCell>
        <mxCell id="u7AtyUlaAKWGp2m2ATKs-5" value="Transform&amp;amp;Agg" style="shape=step;perimeter=stepPerimeter;whiteSpace=wrap;html=1;fixedSize=1;rounded=1;fillColor=#F5AB50;strokeColor=#909090;fontColor=#1A1A1A;" vertex="1" parent="1">
          <mxGeometry x="430" y="240" width="120" height="80" as="geometry" />
        </mxCell>
        <mxCell id="u7AtyUlaAKWGp2m2ATKs-10" value="" style="edgeStyle=orthogonalEdgeStyle;rounded=0;orthogonalLoop=1;jettySize=auto;html=1;strokeColor=#182E3E;labelBackgroundColor=#EEEEEE;fontColor=#1A1A1A;" edge="1" parent="1" source="u7AtyUlaAKWGp2m2ATKs-7" target="u7AtyUlaAKWGp2m2ATKs-9">
          <mxGeometry relative="1" as="geometry" />
        </mxCell>
        <mxCell id="u7AtyUlaAKWGp2m2ATKs-7" value="Publisher" style="shape=step;perimeter=stepPerimeter;whiteSpace=wrap;html=1;fixedSize=1;rounded=1;fillColor=#F5AB50;strokeColor=#909090;fontColor=#1A1A1A;" vertex="1" parent="1">
          <mxGeometry x="630" y="240" width="120" height="80" as="geometry" />
        </mxCell>
        <mxCell id="u7AtyUlaAKWGp2m2ATKs-9" value="DeallocateResource" style="shape=step;perimeter=stepPerimeter;whiteSpace=wrap;html=1;fixedSize=1;rounded=1;fillColor=#F5AB50;strokeColor=#909090;fontColor=#1A1A1A;" vertex="1" parent="1">
          <mxGeometry x="830" y="240" width="120" height="80" as="geometry" />
        </mxCell>
        <mxCell id="u7AtyUlaAKWGp2m2ATKs-13" value="" style="edgeStyle=orthogonalEdgeStyle;rounded=0;orthogonalLoop=1;jettySize=auto;html=1;strokeColor=#182E3E;labelBackgroundColor=#EEEEEE;fontColor=#1A1A1A;" edge="1" parent="1" source="u7AtyUlaAKWGp2m2ATKs-14" target="u7AtyUlaAKWGp2m2ATKs-16">
          <mxGeometry relative="1" as="geometry" />
        </mxCell>
        <mxCell id="u7AtyUlaAKWGp2m2ATKs-14" value="AllocateResource" style="shape=step;perimeter=stepPerimeter;whiteSpace=wrap;html=1;fixedSize=1;rounded=1;fillColor=#F5AB50;strokeColor=#909090;fontColor=#1A1A1A;" vertex="1" parent="1">
          <mxGeometry x="200" y="400" width="120" height="80" as="geometry" />
        </mxCell>
        <mxCell id="u7AtyUlaAKWGp2m2ATKs-15" value="" style="edgeStyle=orthogonalEdgeStyle;rounded=0;orthogonalLoop=1;jettySize=auto;html=1;strokeColor=#182E3E;labelBackgroundColor=#EEEEEE;fontColor=#1A1A1A;" edge="1" parent="1" source="u7AtyUlaAKWGp2m2ATKs-16" target="u7AtyUlaAKWGp2m2ATKs-18">
          <mxGeometry relative="1" as="geometry" />
        </mxCell>
        <mxCell id="u7AtyUlaAKWGp2m2ATKs-16" value="Transform&amp;amp;Agg" style="shape=step;perimeter=stepPerimeter;whiteSpace=wrap;html=1;fixedSize=1;rounded=1;fillColor=#F5AB50;strokeColor=#909090;fontColor=#1A1A1A;" vertex="1" parent="1">
          <mxGeometry x="420" y="400" width="120" height="80" as="geometry" />
        </mxCell>
        <mxCell id="u7AtyUlaAKWGp2m2ATKs-17" value="" style="edgeStyle=orthogonalEdgeStyle;rounded=0;orthogonalLoop=1;jettySize=auto;html=1;strokeColor=#182E3E;labelBackgroundColor=#EEEEEE;fontColor=#1A1A1A;" edge="1" parent="1" source="u7AtyUlaAKWGp2m2ATKs-18" target="u7AtyUlaAKWGp2m2ATKs-19">
          <mxGeometry relative="1" as="geometry" />
        </mxCell>
        <mxCell id="u7AtyUlaAKWGp2m2ATKs-18" value="Publisher" style="shape=step;perimeter=stepPerimeter;whiteSpace=wrap;html=1;fixedSize=1;rounded=1;fillColor=#F5AB50;strokeColor=#909090;fontColor=#1A1A1A;" vertex="1" parent="1">
          <mxGeometry x="630" y="480" width="120" height="80" as="geometry" />
        </mxCell>
        <mxCell id="u7AtyUlaAKWGp2m2ATKs-19" value="DeallocateResource" style="shape=step;perimeter=stepPerimeter;whiteSpace=wrap;html=1;fixedSize=1;rounded=1;fillColor=#F5AB50;strokeColor=#909090;fontColor=#1A1A1A;" vertex="1" parent="1">
          <mxGeometry x="840" y="480" width="120" height="80" as="geometry" />
        </mxCell>
        <mxCell id="u7AtyUlaAKWGp2m2ATKs-22" value="" style="edgeStyle=orthogonalEdgeStyle;curved=0;rounded=1;sketch=0;orthogonalLoop=1;jettySize=auto;html=1;strokeColor=#182E3E;labelBackgroundColor=#EEEEEE;fontColor=#1A1A1A;" edge="1" parent="1" source="u7AtyUlaAKWGp2m2ATKs-20" target="u7AtyUlaAKWGp2m2ATKs-14">
          <mxGeometry relative="1" as="geometry" />
        </mxCell>
        <mxCell id="u7AtyUlaAKWGp2m2ATKs-28" value="" style="edgeStyle=orthogonalEdgeStyle;curved=0;rounded=1;sketch=0;orthogonalLoop=1;jettySize=auto;html=1;strokeColor=#182E3E;exitX=1;exitY=0.5;exitDx=0;exitDy=0;labelBackgroundColor=#EEEEEE;fontColor=#1A1A1A;" edge="1" parent="1" source="u7AtyUlaAKWGp2m2ATKs-20" target="u7AtyUlaAKWGp2m2ATKs-27">
          <mxGeometry relative="1" as="geometry">
            <Array as="points">
              <mxPoint x="180" y="510" />
              <mxPoint x="180" y="570" />
            </Array>
          </mxGeometry>
        </mxCell>
        <mxCell id="u7AtyUlaAKWGp2m2ATKs-20" value="UpstreamSensor" style="shape=hexagon;perimeter=hexagonPerimeter2;whiteSpace=wrap;html=1;fixedSize=1;rounded=1;fontColor=#1A1A1A;strokeColor=#909090;fillColor=#F5AB50;" vertex="1" parent="1">
          <mxGeometry x="30" y="470" width="120" height="80" as="geometry" />
        </mxCell>
        <mxCell id="u7AtyUlaAKWGp2m2ATKs-29" style="edgeStyle=orthogonalEdgeStyle;curved=0;rounded=1;sketch=0;orthogonalLoop=1;jettySize=auto;html=1;strokeColor=#182E3E;labelBackgroundColor=#EEEEEE;fontColor=#1A1A1A;" edge="1" parent="1" source="u7AtyUlaAKWGp2m2ATKs-27" target="u7AtyUlaAKWGp2m2ATKs-18">
          <mxGeometry relative="1" as="geometry" />
        </mxCell>
        <mxCell id="u7AtyUlaAKWGp2m2ATKs-27" value="SkipEmpty" style="shape=step;perimeter=stepPerimeter;whiteSpace=wrap;html=1;fixedSize=1;rounded=1;fontColor=#1A1A1A;strokeColor=#909090;fillColor=#F5AB50;" vertex="1" parent="1">
          <mxGeometry x="190" y="530" width="120" height="80" as="geometry" />
        </mxCell>
      </root>
    </mxGraphModel>
  </diagram>
</mxfile>
